<svg width="24" height="24" viewBox="0 0 24 24" fill="none" xmlns="http://www.w3.org/2000/svg">
<path d="M15.48 12.024C15.48 13.956 13.92 15.516 12 15.516C10.08 15.516 8.52002 13.956 8.52002 12.024C8.52002 10.092 10.08 8.532 12 8.532C13.92 8.532 15.48 10.092 15.48 12.024Z" fill="#0A9046"/>
<path d="M0 11.172L5.496 5.664H1.776C0.768 7.284 0.132 9.156 0 11.172Z" fill="#F17FA9"/>
<path d="M11.1481 0C9.07209 0.144 7.15209 0.816 5.49609 1.872V5.664L11.1481 0Z" fill="#F17FA9"/>
<path d="M23.976 11.172L18.48 5.664H22.2C23.208 7.284 23.832 9.156 23.976 11.172Z" fill="#FFD203"/>
<path d="M12.8279 0C14.9039 0.144 16.8239 0.804 18.4799 1.872V5.664L12.8279 0Z" fill="#FFD203"/>
<path d="M5.49596 12.816H0.0119629C0.143963 14.82 0.779963 16.692 1.77596 18.312H5.49596V12.816Z" fill="#1C9CD8"/>
<path d="M18.5161 12.816H24.0001C23.8681 14.82 23.2321 16.692 22.2361 18.312H18.5161V12.816Z" fill="#43AB49"/>
<path d="M11.148 5.616L5.604 11.172H0L11.148 0V5.616Z" fill="#ED4380"/>
<path d="M12.8279 24C14.9399 23.892 16.8359 23.292 18.5279 22.2V12.828L12.8279 18.54V24Z" fill="#089146"/>
<path d="M11.1361 18.468L5.50806 12.828V22.2C7.17606 23.28 9.06006 23.88 11.1481 24V18.468H11.1361Z" fill="#3671B0"/>
<path d="M12.8401 5.616L18.3841 11.172H23.9881L12.8401 0V5.616Z" fill="#EF5556"/>
</svg>
